<svg width="343" height="21" viewBox="0 0 343 21" fill="none" xmlns="http://www.w3.org/2000/svg">
<path d="M167.516 15.098C166.592 15.098 165.743 14.8833 164.968 14.454C164.203 14.0247 163.591 13.4273 163.134 12.662C162.686 11.8873 162.462 11.0193 162.462 10.058C162.462 9.09667 162.686 8.23333 163.134 7.468C163.591 6.70267 164.203 6.10533 164.968 5.676C165.743 5.24667 166.592 5.032 167.516 5.032C168.44 5.032 169.285 5.24667 170.05 5.676C170.825 6.10533 171.431 6.70267 171.87 7.468C172.318 8.23333 172.542 9.09667 172.542 10.058C172.542 11.0193 172.318 11.8873 171.87 12.662C171.422 13.4273 170.815 14.0247 170.05 14.454C169.285 14.8833 168.44 15.098 167.516 15.098ZM167.516 12.914C168.3 12.914 168.925 12.6527 169.392 12.13C169.868 11.6073 170.106 10.9167 170.106 10.058C170.106 9.19 169.868 8.49933 169.392 7.986C168.925 7.46333 168.3 7.202 167.516 7.202C166.723 7.202 166.088 7.45867 165.612 7.972C165.145 8.48533 164.912 9.18067 164.912 10.058C164.912 10.926 165.145 11.6213 165.612 12.144C166.088 12.6573 166.723 12.914 167.516 12.914ZM178.956 15L176.912 11.29H176.338V15H173.944V5.172H177.962C178.737 5.172 179.395 5.30733 179.936 5.578C180.487 5.84867 180.897 6.222 181.168 6.698C181.439 7.16467 181.574 7.68733 181.574 8.266C181.574 8.91933 181.387 9.50267 181.014 10.016C180.65 10.5293 180.109 10.8933 179.39 11.108L181.658 15H178.956ZM176.338 9.596H177.822C178.261 9.596 178.587 9.48867 178.802 9.274C179.026 9.05933 179.138 8.756 179.138 8.364C179.138 7.99067 179.026 7.69667 178.802 7.482C178.587 7.26733 178.261 7.16 177.822 7.16H176.338V9.596Z" fill="#9098B1"/>
<line y1="9.5" x2="134" y2="9.5" stroke="#EBF0FF"/>
<line x1="206" y1="9.5" x2="343" y2="9.50001" stroke="#EBF0FF"/>
</svg>
